<svg width="12" height="12" viewBox="0 0 12 12" fill="none" xmlns="http://www.w3.org/2000/svg">
<path d="M6 11.7241C6.76628 11.7241 7.48779 11.5773 8.16455 11.2837C8.84131 10.9937 9.43571 10.5908 9.94775 10.0752C10.4634 9.55957 10.868 8.96517 11.1616 8.29199C11.4552 7.61523 11.6021 6.89193 11.6021 6.12207C11.6021 5.35579 11.4552 4.63607 11.1616 3.96289C10.868 3.28613 10.4634 2.68994 9.94775 2.17432C9.43571 1.65869 8.83952 1.25586 8.15918 0.96582C7.48242 0.672201 6.7609 0.525391 5.99463 0.525391C5.22835 0.525391 4.50684 0.672201 3.83008 0.96582C3.15332 1.25586 2.55713 1.65869 2.0415 2.17432C1.52946 2.68994 1.12663 3.28613 0.833008 3.96289C0.542969 4.63607 0.397949 5.35579 0.397949 6.12207C0.397949 6.89193 0.542969 7.61523 0.833008 8.29199C1.12663 8.96517 1.53125 9.55957 2.04688 10.0752C2.5625 10.5908 3.15869 10.9937 3.83545 11.2837C4.51221 11.5773 5.23372 11.7241 6 11.7241ZM3.39502 6.98682C3.15511 6.98682 2.94922 6.90267 2.77734 6.73438C2.60547 6.5625 2.51953 6.35661 2.51953 6.1167C2.51953 5.87679 2.60547 5.6709 2.77734 5.49902C2.94922 5.32715 3.15511 5.24121 3.39502 5.24121C3.63135 5.24121 3.83366 5.32715 4.00195 5.49902C4.17383 5.6709 4.25977 5.87679 4.25977 6.1167C4.25977 6.35661 4.17562 6.5625 4.00732 6.73438C3.83903 6.90267 3.63493 6.98682 3.39502 6.98682ZM5.99463 6.98682C5.75472 6.98682 5.54883 6.90267 5.37695 6.73438C5.20866 6.5625 5.12451 6.35661 5.12451 6.1167C5.12451 5.87679 5.20866 5.6709 5.37695 5.49902C5.54883 5.32715 5.75472 5.24121 5.99463 5.24121C6.23454 5.24121 6.44043 5.32715 6.6123 5.49902C6.78418 5.6709 6.87012 5.87679 6.87012 6.1167C6.87012 6.35661 6.78418 6.5625 6.6123 6.73438C6.44043 6.90267 6.23454 6.98682 5.99463 6.98682ZM8.59424 6.98682C8.35433 6.98682 8.15023 6.90267 7.98193 6.73438C7.81364 6.5625 7.72949 6.35661 7.72949 6.1167C7.72949 5.87679 7.81364 5.6709 7.98193 5.49902C8.15023 5.32715 8.35433 5.24121 8.59424 5.24121C8.83415 5.24121 9.04004 5.32715 9.21191 5.49902C9.38379 5.6709 9.46973 5.87679 9.46973 6.1167C9.46973 6.35661 9.38379 6.5625 9.21191 6.73438C9.04004 6.90267 8.83415 6.98682 8.59424 6.98682Z" fill="#F2F2F7"/>
</svg>
