<svg width="32" height="32" viewBox="0 0 32 32" fill="none" xmlns="http://www.w3.org/2000/svg">
<rect width="32" height="32" rx="16" fill="#F2F2F7"/>
<path d="M10.9165 20.2026C10.5848 20.5344 10.578 21.1235 10.9233 21.4688C11.2754 21.8141 11.8645 21.8073 12.1895 21.4823L16.1978 17.474L20.1993 21.4755C20.5379 21.8141 21.1202 21.8141 21.4655 21.4688C21.8108 21.1167 21.8108 20.5412 21.4723 20.2026L17.4707 16.2011L21.4723 12.1927C21.8108 11.8542 21.8176 11.2719 21.4655 10.9266C21.1202 10.5813 20.5379 10.5813 20.1993 10.9198L16.1978 14.9214L12.1895 10.9198C11.8645 10.588 11.2686 10.5745 10.9233 10.9266C10.578 11.2719 10.5848 11.8677 10.9165 12.1927L14.9181 16.2011L10.9165 20.2026Z" fill="#3C3C43" fill-opacity="0.6"/>
</svg>
