<svg width="40" height="40" viewBox="0 0 40 40" fill="none" xmlns="http://www.w3.org/2000/svg">
<rect width="40" height="40" rx="20" fill="#007AFF"/>
<path d="M12.7031 17.2266H14.2422V15.7422C14.2422 15.3672 14.3359 15.0859 14.5234 14.8984C14.7161 14.7109 14.9948 14.6172 15.3594 14.6172H16.8281V13.0781H15.2656C14.4219 13.0781 13.7839 13.2917 13.3516 13.7188C12.9193 14.1458 12.7031 14.7786 12.7031 15.6172V17.2266ZM17.9688 14.6172H22.0234V13.0781H17.9688V14.6172ZM25.75 17.2266H27.2891V15.6172C27.2891 14.7786 27.0729 14.1458 26.6406 13.7188C26.2083 13.2917 25.5703 13.0781 24.7266 13.0781H23.1641V14.6172H24.6328C24.9922 14.6172 25.2682 14.7109 25.4609 14.8984C25.6536 15.0859 25.75 15.3672 25.75 15.7422V17.2266ZM25.75 22.3672H27.2891V18.3672H25.75V22.3672ZM23.1641 27.6641H24.7266C25.5703 27.6641 26.2083 27.4479 26.6406 27.0156C27.0729 26.5885 27.2891 25.9583 27.2891 25.125V23.5156H25.75V24.9922C25.75 25.3724 25.6536 25.6562 25.4609 25.8438C25.2682 26.0312 24.9922 26.125 24.6328 26.125H23.1641V27.6641ZM17.9688 27.6641H22.0234V26.125H17.9688V27.6641ZM15.2656 27.6641H16.8281V26.125H15.3594C14.9948 26.125 14.7161 26.0312 14.5234 25.8438C14.3359 25.6562 14.2422 25.3724 14.2422 24.9922V23.5156H12.7031V25.125C12.7031 25.9583 12.9193 26.5885 13.3516 27.0156C13.7839 27.4479 14.4219 27.6641 15.2656 27.6641ZM12.7031 22.3672H14.2422V18.3672H12.7031V22.3672Z" fill="white"/>
</svg>
