<svg width="20" height="20" viewBox="0 0 20 20" fill="none" xmlns="http://www.w3.org/2000/svg">
<path d="M10 17.2578C11.0156 17.2578 11.9688 17.0651 12.8594 16.6797C13.75 16.2995 14.5339 15.7708 15.2109 15.0938C15.888 14.4115 16.4167 13.625 16.7969 12.7344C17.1823 11.8385 17.375 10.8828 17.375 9.86719C17.375 8.85156 17.1823 7.89844 16.7969 7.00781C16.4167 6.11198 15.888 5.32552 15.2109 4.64844C14.5339 3.96615 13.75 3.4349 12.8594 3.05469C11.9688 2.66927 11.0156 2.47656 10 2.47656C8.98438 2.47656 8.03125 2.66927 7.14062 3.05469C6.25 3.4349 5.46615 3.96615 4.78906 4.64844C4.11198 5.32552 3.58073 6.11198 3.19531 7.00781C2.8151 7.89844 2.625 8.85156 2.625 9.86719C2.625 10.8828 2.8151 11.8385 3.19531 12.7344C3.58073 13.625 4.11198 14.4115 4.78906 15.0938C5.46615 15.7708 6.25 16.2995 7.14062 16.6797C8.03125 17.0651 8.98438 17.2578 10 17.2578ZM10 15.9844C9.15104 15.9844 8.35938 15.8281 7.625 15.5156C6.89583 15.2031 6.25521 14.7682 5.70312 14.2109C5.15104 13.6536 4.71875 13.0052 4.40625 12.2656C4.09375 11.5208 3.9375 10.7214 3.9375 9.86719C3.9375 9.01302 4.09375 8.21615 4.40625 7.47656C4.71875 6.73698 5.15104 6.08854 5.70312 5.53125C6.25521 4.96875 6.89583 4.53125 7.625 4.21875C8.35938 3.90625 9.15104 3.75 10 3.75C10.849 3.75 11.638 3.90625 12.3672 4.21875C13.1016 4.53125 13.7448 4.96875 14.2969 5.53125C14.849 6.08854 15.2812 6.73698 15.5938 7.47656C15.9062 8.21615 16.0625 9.01302 16.0625 9.86719C16.0625 10.7214 15.9062 11.5208 15.5938 12.2656C15.2812 13.0052 14.849 13.6536 14.2969 14.2109C13.7448 14.7682 13.1016 15.2031 12.3672 15.5156C11.638 15.8281 10.849 15.9844 10 15.9844ZM10 19.3672C10.1562 19.3672 10.2865 19.3125 10.3906 19.2031C10.5 19.0938 10.5547 18.9609 10.5547 18.8047V13.5156C10.5547 13.3594 10.5 13.2292 10.3906 13.125C10.2865 13.0156 10.1562 12.9609 10 12.9609C9.84375 12.9609 9.71094 13.0156 9.60156 13.125C9.49219 13.2292 9.4375 13.3594 9.4375 13.5156V18.8047C9.4375 18.9609 9.49219 19.0938 9.60156 19.2031C9.71094 19.3125 9.84375 19.3672 10 19.3672ZM1.0625 10.4297H6.35156C6.50781 10.4297 6.64062 10.375 6.75 10.2656C6.85938 10.1562 6.91406 10.0234 6.91406 9.86719C6.91406 9.71094 6.85938 9.58073 6.75 9.47656C6.64062 9.36719 6.50781 9.3125 6.35156 9.3125H1.0625C0.90625 9.3125 0.773438 9.36719 0.664062 9.47656C0.554688 9.58073 0.5 9.71094 0.5 9.86719C0.5 10.0234 0.554688 10.1562 0.664062 10.2656C0.773438 10.375 0.90625 10.4297 1.0625 10.4297ZM10 6.78125C10.1562 6.78125 10.2865 6.72656 10.3906 6.61719C10.5 6.50781 10.5547 6.375 10.5547 6.21875V0.929688C10.5547 0.773438 10.5 0.640625 10.3906 0.53125C10.2865 0.421875 10.1562 0.367188 10 0.367188C9.84375 0.367188 9.71094 0.421875 9.60156 0.53125C9.49219 0.640625 9.4375 0.773438 9.4375 0.929688V6.21875C9.4375 6.375 9.49219 6.50781 9.60156 6.61719C9.71094 6.72656 9.84375 6.78125 10 6.78125ZM13.6484 10.4297H18.9375C19.0938 10.4297 19.2266 10.375 19.3359 10.2656C19.4453 10.1562 19.5 10.0234 19.5 9.86719C19.5 9.71094 19.4453 9.58073 19.3359 9.47656C19.2266 9.36719 19.0938 9.3125 18.9375 9.3125H13.6484C13.4922 9.3125 13.3594 9.36719 13.25 9.47656C13.1406 9.58073 13.0859 9.71094 13.0859 9.86719C13.0859 10.0234 13.1406 10.1562 13.25 10.2656C13.3594 10.375 13.4922 10.4297 13.6484 10.4297Z" fill="#007AFF"/>
</svg>
