<svg width="12" height="14" viewBox="0 0 12 14" fill="none" xmlns="http://www.w3.org/2000/svg">
<path d="M9.29297 9.28906C8.92578 9.28906 8.58984 9.37891 8.28516 9.55859C7.98438 9.73828 7.74414 9.98047 7.56445 10.2852C7.38477 10.5859 7.29492 10.9199 7.29492 11.2871C7.29492 11.6504 7.38477 11.9824 7.56445 12.2832C7.74414 12.5879 7.98438 12.8281 8.28516 13.0039C8.58984 13.1797 8.92578 13.2676 9.29297 13.2676C9.66016 13.2676 9.99414 13.1797 10.2949 13.0039C10.5957 12.8281 10.8359 12.5879 11.0156 12.2832C11.1953 11.9824 11.2852 11.6504 11.2852 11.2871C11.2852 10.9199 11.1953 10.5859 11.0156 10.2852C10.8359 9.98047 10.5957 9.73828 10.2949 9.55859C9.99414 9.37891 9.66016 9.28906 9.29297 9.28906ZM9.29297 10.3672C9.54688 10.3672 9.76172 10.457 9.9375 10.6367C10.1172 10.8125 10.207 11.0293 10.207 11.2871C10.207 11.541 10.1172 11.7559 9.9375 11.9316C9.76172 12.1074 9.54688 12.1953 9.29297 12.1953C9.03516 12.1953 8.81641 12.1074 8.63672 11.9316C8.46094 11.7559 8.37305 11.541 8.37305 11.2871C8.37305 11.0254 8.46094 10.8066 8.63672 10.6309C8.81641 10.4551 9.03516 10.3672 9.29297 10.3672ZM2.70703 4.2793C3.07422 4.2793 3.4082 4.18945 3.70898 4.00977C4.00977 3.83008 4.25 3.58984 4.42969 3.28906C4.60938 2.98438 4.69922 2.64844 4.69922 2.28125C4.69922 1.91406 4.60938 1.58008 4.42969 1.2793C4.25 0.978516 4.00977 0.738281 3.70898 0.558594C3.4082 0.378906 3.07422 0.289062 2.70703 0.289062C2.33984 0.289062 2.00586 0.378906 1.70508 0.558594C1.4043 0.738281 1.16406 0.978516 0.984375 1.2793C0.804688 1.58008 0.714844 1.91406 0.714844 2.28125C0.714844 2.64844 0.804688 2.98438 0.984375 3.28906C1.16406 3.58984 1.4043 3.83008 1.70508 4.00977C2.00586 4.18945 2.33984 4.2793 2.70703 4.2793ZM2.70703 3.20117C2.44922 3.20117 2.23242 3.11328 2.05664 2.9375C1.88086 2.75781 1.79297 2.53906 1.79297 2.28125C1.79297 2.02344 1.88086 1.80664 2.05664 1.63086C2.23242 1.45508 2.44922 1.36719 2.70703 1.36719C2.96484 1.36719 3.18164 1.45508 3.35742 1.63086C3.5332 1.80664 3.62109 2.02344 3.62109 2.28125C3.62109 2.53906 3.5332 2.75781 3.35742 2.9375C3.18164 3.11328 2.96484 3.20117 2.70703 3.20117ZM2.13867 4.41992C2.13867 5.04492 2.32617 5.57031 2.70117 5.99609C3.07617 6.42188 3.62695 6.73047 4.35352 6.92188L7.3125 7.72461C8.25391 7.98242 8.72461 8.45508 8.72461 9.14258V9.62305H9.85547V9.14258C9.85547 8.51758 9.66797 7.99414 9.29297 7.57227C8.92188 7.14648 8.37305 6.83789 7.64648 6.64648L4.6875 5.84375C3.74219 5.58594 3.26953 5.11133 3.26953 4.41992V3.93945H2.13867V4.41992Z" fill="#3C3C43" fill-opacity="0.6"/>
</svg>
