<svg width="20" height="20" viewBox="0 0 20 20" fill="none" xmlns="http://www.w3.org/2000/svg">
<path d="M1.32031 16.3125C1.32031 16.6354 1.40885 16.8646 1.58594 17C1.76302 17.1354 1.96875 17.2031 2.20312 17.2031C2.33333 17.2031 2.46094 17.1693 2.58594 17.1016C2.71094 17.0391 2.84635 16.9609 2.99219 16.8672C3.42448 16.5755 3.89583 16.3438 4.40625 16.1719C4.92188 16.0052 5.45312 15.9245 6 15.9297C6.5625 15.9349 7.11198 16.0417 7.64844 16.25C8.1901 16.4583 8.67969 16.7734 9.11719 17.1953C9.28906 17.3516 9.44271 17.4583 9.57812 17.5156C9.71354 17.5781 9.85417 17.6094 10 17.6094C10.1406 17.6094 10.2786 17.5781 10.4141 17.5156C10.5547 17.4583 10.7083 17.3516 10.875 17.1953C11.3125 16.7734 11.7995 16.4583 12.3359 16.25C12.8776 16.0417 13.4323 15.9349 14 15.9297C14.5417 15.9245 15.0677 16.0052 15.5781 16.1719C16.0938 16.3438 16.5677 16.5755 17 16.8672C17.1458 16.9609 17.2812 17.0391 17.4062 17.1016C17.5312 17.1693 17.6615 17.2031 17.7969 17.2031C18.026 17.2031 18.2292 17.1354 18.4062 17C18.5833 16.8646 18.6719 16.6354 18.6719 16.3125V5.71094C18.6719 5.64323 18.6667 5.58073 18.6562 5.52344C18.6458 5.46615 18.6198 5.40365 18.5781 5.33594C18.349 4.9349 18.0078 4.5651 17.5547 4.22656C17.1016 3.88802 16.5677 3.61719 15.9531 3.41406C15.3438 3.20573 14.6823 3.10156 13.9688 3.10156C13.1146 3.10156 12.3359 3.25521 11.6328 3.5625C10.9349 3.86458 10.3906 4.25781 10 4.74219C9.60417 4.25781 9.05469 3.86458 8.35156 3.5625C7.65365 3.25521 6.88021 3.10156 6.03125 3.10156C5.3125 3.10156 4.64583 3.20573 4.03125 3.41406C3.42188 3.61719 2.89062 3.88802 2.4375 4.22656C1.98958 4.5651 1.64844 4.9349 1.41406 5.33594C1.3724 5.40365 1.34635 5.46615 1.33594 5.52344C1.32552 5.58073 1.32031 5.64323 1.32031 5.71094V16.3125ZM2.57812 15.6484V5.89062C2.78646 5.58333 3.07031 5.3151 3.42969 5.08594C3.78906 4.85677 4.1901 4.67969 4.63281 4.55469C5.08073 4.42448 5.54688 4.35938 6.03125 4.35938C6.77083 4.35938 7.44271 4.5026 8.04688 4.78906C8.65104 5.07552 9.09115 5.45833 9.36719 5.9375V15.7812C9.10156 15.5677 8.79167 15.3776 8.4375 15.2109C8.08854 15.0443 7.70833 14.9141 7.29688 14.8203C6.88542 14.7214 6.46354 14.6719 6.03125 14.6719C5.34896 14.6719 4.70573 14.7604 4.10156 14.9375C3.4974 15.1146 2.98958 15.3516 2.57812 15.6484ZM10.625 15.7812V5.9375C10.901 5.45833 11.3411 5.07552 11.9453 4.78906C12.5495 4.5026 13.224 4.35938 13.9688 4.35938C14.4479 4.35938 14.9089 4.42448 15.3516 4.55469C15.7995 4.67969 16.2031 4.85677 16.5625 5.08594C16.9219 5.3151 17.2057 5.58333 17.4141 5.89062V15.6484C17.0026 15.3516 16.4948 15.1146 15.8906 14.9375C15.2865 14.7604 14.6458 14.6719 13.9688 14.6719C13.5312 14.6719 13.1068 14.7214 12.6953 14.8203C12.2891 14.9141 11.9089 15.0443 11.5547 15.2109C11.2005 15.3776 10.8906 15.5677 10.625 15.7812Z" fill="#259330"/>
</svg>
